<svg id="Capa_1" data-name="Capa 1" xmlns="http://www.w3.org/2000/svg" viewBox="0 0 761.26 59.89"><defs><style>.cls-1{fill:#0071bc;}.cls-2{fill:#1b1464;}</style></defs><title>logo</title><path class="cls-1" d="M7.82,64.34V6.52H41.39Q52,6.52,56.54,9.93t4.53,11.26a15.89,15.89,0,0,1-1.77,8,10.12,10.12,0,0,1-5.57,4.44v.17A12.37,12.37,0,0,1,59.56,37a10.78,10.78,0,0,1,2.89,5.3,27,27,0,0,1,.69,5.92q0,8.63-4.62,12.38T43.29,64.34ZM19.13,30.17H39.32q6.13,0,8.29-1.51t2.15-5.48q0-4-2.15-5.4t-7.86-1.42H19.13Zm0,24.34H41.65q5.61,0,7.86-1.56t2.24-5.78q0-4.05-2.24-5.7t-8.38-1.64h-22Z" transform="translate(-7.82 -5.49)"/><path class="cls-1" d="M73.58,64.34V6.52H107.5A34.52,34.52,0,0,1,119,8.12a13.06,13.06,0,0,1,6.86,5.44q2.41,3.84,2.42,11.34,0,8.46-3.32,12.65t-11,5.22l17.26,21.57H117.08L100.34,43.11H84.89V64.34ZM84.89,33.28h21.66c3.85,0,6.56-.62,8.11-1.86S117,28,117,25c0-2.76-.67-4.88-2-6.34s-4.15-2.2-8.41-2.2H84.89Z" transform="translate(-7.82 -5.49)"/><path class="cls-1" d="M131.92,64.34,156.69,6.52h13.46L195,64.34H182.84L178,52.87H148.49l-4.92,11.47ZM152.46,43.2H174L163.25,17Z" transform="translate(-7.82 -5.49)"/><path class="cls-1" d="M201.31,64.34V6.52h14.24l30.72,40.82V6.52h10.87V64.34h-11l-34-45.22V64.34Z" transform="translate(-7.82 -5.49)"/><path class="cls-1" d="M270.78,64.34V6.52h11.31V34.4L312.81,6.52h14.67l-25,22.7,25.29,35.12H314L294.08,36.81l-12,10.79V64.34Z" transform="translate(-7.82 -5.49)"/><path class="cls-1" d="M360.1,65.38a56.85,56.85,0,0,1-14.58-1.6,21.45,21.45,0,0,1-9.58-5.09,20.52,20.52,0,0,1-5.31-9.23,50.55,50.55,0,0,1-1.68-14,50.52,50.52,0,0,1,1.68-14,20.51,20.51,0,0,1,5.31-9.24,21.55,21.55,0,0,1,9.58-5.09,67.69,67.69,0,0,1,29.17,0,21.61,21.61,0,0,1,9.58,5.09,20.58,20.58,0,0,1,5.3,9.24,50.12,50.12,0,0,1,1.69,14,50.14,50.14,0,0,1-1.69,14,20.6,20.6,0,0,1-5.3,9.23,21.51,21.51,0,0,1-9.58,5.09A56.93,56.93,0,0,1,360.1,65.38Zm0-9.93a47,47,0,0,0,8-.64,14.75,14.75,0,0,0,6.3-2.55,11.82,11.82,0,0,0,4-5.69q1.38-3.81,1.38-11.14A41.16,41.16,0,0,0,379,26.2a15.69,15.69,0,0,0-2.5-5.65,11.67,11.67,0,0,0-5.4-3.72q-3.71-1.41-11-1.42a46.77,46.77,0,0,0-8,.65,14.76,14.76,0,0,0-6.3,2.54,11.83,11.83,0,0,0-4,5.7q-1.4,3.79-1.39,11.13a40.58,40.58,0,0,0,.83,9.24,15.6,15.6,0,0,0,2.5,5.65A11.7,11.7,0,0,0,349.14,54Q352.85,55.46,360.1,55.45Z" transform="translate(-7.82 -5.49)"/><path class="cls-2" d="M418.61,64.34V14H395.74V6.52H449.6V14H426.73V64.34Z" transform="translate(-7.82 -5.49)"/><path class="cls-2" d="M483.34,65.38a56,56,0,0,1-14.46-1.6,21.16,21.16,0,0,1-9.49-5.09,20.4,20.4,0,0,1-5.22-9.23,51.85,51.85,0,0,1-1.64-14,51.82,51.82,0,0,1,1.64-14,20.39,20.39,0,0,1,5.22-9.24,21.26,21.26,0,0,1,9.49-5.09,66.5,66.5,0,0,1,28.91,0,21.25,21.25,0,0,1,9.5,5.09,20.48,20.48,0,0,1,5.22,9.24,51.82,51.82,0,0,1,1.64,14,51.85,51.85,0,0,1-1.64,14,20.5,20.5,0,0,1-5.22,9.23,21.15,21.15,0,0,1-9.5,5.09A55.88,55.88,0,0,1,483.34,65.38Zm0-7.34a54.55,54.55,0,0,0,9.15-.73,17.17,17.17,0,0,0,7.29-2.89A13.52,13.52,0,0,0,504.35,48Q506,43.63,506,35.43a44,44,0,0,0-1.12-10.87,15,15,0,0,0-3.67-6.91,14.6,14.6,0,0,0-6.9-3.71,45.15,45.15,0,0,0-10.92-1.12,54.52,54.52,0,0,0-9.15.74,16.94,16.94,0,0,0-7.29,2.89,13.4,13.4,0,0,0-4.57,6.47q-1.6,4.32-1.6,12.51a44.08,44.08,0,0,0,1.12,10.88,15,15,0,0,0,3.67,6.9,14.47,14.47,0,0,0,6.9,3.71A44.65,44.65,0,0,0,483.34,58Z" transform="translate(-7.82 -5.49)"/><path class="cls-2" d="M525.71,64.34V6.52h8.12V56.84h39.26v7.5Z" transform="translate(-7.82 -5.49)"/><path class="cls-2" d="M581,64.34V6.52h50v7.34H589.06V31.29h36.07v7.34H589.06V57h42.63v7.33Z" transform="translate(-7.82 -5.49)"/><path class="cls-2" d="M642.74,64.34V6.52h26A58,58,0,0,1,683,8a20.92,20.92,0,0,1,9.28,4.83,19.38,19.38,0,0,1,5.09,8.89A50.5,50.5,0,0,1,699,35.43a61.26,61.26,0,0,1-1,11.48,21.45,21.45,0,0,1-4,9.28,19.32,19.32,0,0,1-8.76,6q-5.79,2.14-16.49,2.15ZM650.85,57h17.26q10.1,0,14.67-2.25a12.17,12.17,0,0,0,6.3-6.77q1.73-4.53,1.73-12.56t-1.73-12.55a12.22,12.22,0,0,0-6.3-6.78q-4.57-2.24-14.67-2.24H650.85Z" transform="translate(-7.82 -5.49)"/><path class="cls-2" d="M738.27,65.38a55.94,55.94,0,0,1-14.45-1.6,21.2,21.2,0,0,1-9.5-5.09,20.4,20.4,0,0,1-5.22-9.23,51.85,51.85,0,0,1-1.64-14,51.82,51.82,0,0,1,1.64-14,20.39,20.39,0,0,1,5.22-9.24,21.3,21.3,0,0,1,9.5-5.09,66.5,66.5,0,0,1,28.91,0,21.26,21.26,0,0,1,9.49,5.09,20.39,20.39,0,0,1,5.22,9.24,51.82,51.82,0,0,1,1.64,14,51.85,51.85,0,0,1-1.64,14,20.4,20.4,0,0,1-5.22,9.23,21.16,21.16,0,0,1-9.49,5.09A56,56,0,0,1,738.27,65.38Zm0-7.34a54.55,54.55,0,0,0,9.15-.73,17.07,17.07,0,0,0,7.29-2.89A13.53,13.53,0,0,0,759.29,48q1.59-4.32,1.59-12.52a44,44,0,0,0-1.12-10.87,15,15,0,0,0-3.67-6.91,14.55,14.55,0,0,0-6.9-3.71,45.15,45.15,0,0,0-10.92-1.12,54.52,54.52,0,0,0-9.15.74,17,17,0,0,0-7.29,2.89,13.47,13.47,0,0,0-4.57,6.47q-1.6,4.32-1.6,12.51a44.08,44.08,0,0,0,1.12,10.88,15,15,0,0,0,3.67,6.9,14.52,14.52,0,0,0,6.9,3.71A44.65,44.65,0,0,0,738.27,58Z" transform="translate(-7.82 -5.49)"/></svg>